<?xml version="1.0" encoding="utf-8"?>
<!-- Generator: Adobe Illustrator 26.5.0, SVG Export Plug-In . SVG Version: 6.00 Build 0)  -->
<svg version="1.1" id="Layer_1" xmlns="http://www.w3.org/2000/svg" xmlns:xlink="http://www.w3.org/1999/xlink" x="0px" y="0px"
	 viewBox="0 0 428 926" style="enable-background:new 0 0 428 926;" xml:space="preserve">
<style type="text/css">
	.st0{fill:#1A1818;}
	.st1{fill:none;stroke:#FFFFFF;stroke-miterlimit:10;}
	.st2{fill:#FFFFFF;}
</style>
<path class="st0" d="M31.68,312.71l39.11-15.44l56.61-0.51c0,0-3.35,49.66,1.03,66.9l-58.67,0.26l-39.63-13.12
	C30.13,350.79,28.33,317.34,31.68,312.71z"/>
<path class="st0" d="M174.93,284.79c0,0-2.51,68.32,0.32,89.67c0,0-22.64,1.8-36.54-1.03c0,0-7.3-4.74-8.56-8.84
	s-0.19-70.34-0.19-70.34s4.63-6.27,17.56-8.88L174.93,284.79z"/>
<path class="st0" d="M170.62,389.9l49.92,1.54c0,0,15.95,2.06,13.89,22.64c0,0,4.12,15.7-6.69,19.56l-0.51,4.12
	c0,0,22.71-1.35,23.67,6.18c0,0,3.47,4.57,3.47,8.88l16.85,0.51c0,0,8.56-2.51,8.62-16.08l-7.33-42.33c0,0-2.44-13.51-0.51-19.43
	c0,0,1.93-9.26,12.87-9.52l49.92,0.26c0,0,10.29-1.67,13.64,5.4l8.23,13.12c0,0,22.9-3.86,26.76-14.67l-1.54-3.6
	c0,0,17.63-12.87,15.7-36.28c-1.93-23.42-13.38-30.62-13.38-30.62s1.03-10.04-9.52-14.15l-12.61-5.66c0,0-6.3-0.77-7.72,4.12
	l-7.2-0.26c0,0,1.93-7.72-12.09-5.92h-35.77l-6.69,3.09c0,0-31.39,2.7-46.32-1.03c0,0-11.06-6.43-15.44,3.86h-7.46
	c0,0,0.13-5.53-10.04-4.63h-14.92l-6.43,4.63l-11.32,0.26c0,0-4.5,31.13-0.77,89.8c0,0-0.51,3.86-9.26,5.66V389.9z"/>
<path class="st0" d="M191.98,392.73c0,0,20.58,5.53,20.07,14.67l1.03,22.64c0,0,9.13,6.95,17.75-1.29c0,0,3.73,0.9,2.06-21.61
	c0,0-0.51-12.74-15.44-14.41H191.98z"/>
<path class="st0" d="M254.25,456.16c0,0-0.19,44.39,8.88,64.84c0,0,24.89,5.98,74.1,1.16c0,0,1.54-59.25-22-114.24
	c0,0-7.14-21.81,19.68-21.23h18.14c0,0,2.12-10.61-13.12-17.37l-55.19-0.77c0,0-14.28,0.77-10.81,18.14l8.11,47.86
	c0,0,1.93,18.14-10.42,21.23L254.25,456.16z"/>
<path class="st0" d="M264.28,524.09c0,0,6.37,16.79-10.04,16.6l-72.95,3.86c0,0-6.56,1.93-3.47,8.88c0,0,14.47-0.96,10.04,13.51
	l-13.12,1.16l-0.39-6.56c0,0-12.35-2.51-13.51,6.95l-1.93,8.68l-4.25,4.44c0,0,118.75,17.59,230.42,1.64l-2.12-8.39
	c0,0-7.04-20.17-16.79-27.02c0,0-33.43-6.85-29.33-22.68C336.85,525.15,301.92,529.3,264.28,524.09z"/>
<path class="st0" d="M155.15,584.94c0,0,4.63-4.37,4.63,48.37l13.89,12.87l80.28,6.18l5.66-2.06l47.86-0.51l4.12,3.09l39.11-2.06
	l23.67-9.78l8.23-9.26l1.54-40.14l2.73-5.6C386.89,586.03,287.89,605.81,155.15,584.94z"/>
<line class="st1" x1="70.66" y1="302.42" x2="125.72" y2="302.42"/>
<line class="st1" x1="68.86" y1="317.21" x2="123.92" y2="317.21"/>
<line class="st1" x1="69.05" y1="336.25" x2="124.12" y2="336.25"/>
<line class="st1" x1="70.31" y1="354.55" x2="125.37" y2="354.55"/>
<path class="st2" d="M358.96,325.57h-145.1c-4.25,0-7.73-3.48-7.73-7.73v-11.3c0-4.25,3.48-7.73,7.73-7.73h145.1
	c4.25,0,7.73,3.48,7.73,7.73v11.3C366.69,322.09,363.21,325.57,358.96,325.57z"/>
<path class="st2" d="M352.52,344.61H250.15c-1.99,0-3.62-1.63-3.62-3.62v-5.3c0-1.99,1.63-3.62,3.62-3.62h102.37
	c1.99,0,3.62,1.63,3.62,3.62v5.3C356.14,342.98,354.51,344.61,352.52,344.61z"/>
<path class="st0" d="M354.16,321.91H219.7c-3.25,0-5.91-2.66-5.91-5.91v-8.64c0-3.25,2.66-5.91,5.91-5.91h134.46
	c3.25,0,5.91,2.66,5.91,5.91V316C360.07,319.25,357.41,321.91,354.16,321.91z"/>
<line class="st1" x1="292.91" y1="304.67" x2="347.97" y2="304.67"/>
<line class="st1" x1="298.31" y1="308.17" x2="353.38" y2="308.17"/>
<line class="st1" x1="303.33" y1="312.03" x2="358.4" y2="312.03"/>
<path class="st1" d="M253.99,472.75c0,0,11.64,5.4,37.31-2.7"/>
<path class="st1" d="M257.46,501.51c0,0,11.64,5.4,37.31-2.7"/>
</svg>
