<?xml version="1.0" encoding="utf-8"?>
<!-- Generator: Adobe Illustrator 26.5.0, SVG Export Plug-In . SVG Version: 6.00 Build 0)  -->
<svg version="1.1" id="Layer_1" xmlns="http://www.w3.org/2000/svg" xmlns:xlink="http://www.w3.org/1999/xlink" x="0px" y="0px"
	 viewBox="0 0 428 926" style="enable-background:new 0 0 428 926;" xml:space="preserve">
<style type="text/css">
	.st0{fill:#FFFFFF;stroke:#1A1818;stroke-width:3;stroke-miterlimit:10;}
	.st1{fill:#1A1818;}
</style>
<polyline class="st0" points="338.05,210.37 340.33,212.91 338.84,214.25 328.53,214.7 321.81,211.27 295.24,204.1 277.62,199.77 
	252.98,197.68 253.43,196.04 262.09,195.14 283.59,196.48 304.94,201.41 331.67,210.22 341.97,209.77 343.76,205.74 326.29,194.1 
	294.04,179.31 253.73,166.77 214.31,161.4 178.03,160.5 166.38,168.56 152.49,172.59 140.4,172.59 124.72,165.43 100.98,167.22 
	96.5,170.35 95.6,178.42 97.1,207.09 100.08,213.66 105.91,218.58 127.41,217.69 134.58,211.71 146.07,207.83 155.33,207.83 
	168.17,209.92 178.77,215.75 184.74,225.3 186.98,232.06 188.55,245.83 189.45,265.99 191.91,374.17 190.57,399.25 185.19,427.92 
	227.75,427.92 223.27,398.8 222.37,374.17 222.15,266.77 221.81,236.09 221.81,219.4 226.51,205.74 237.15,199.13 252.98,197.68 "/>
<polygon class="st1" points="237.6,746.13 234.18,701.39 233.04,624.67 233.95,567.14 233.49,504.13 231.67,454.36 231.67,422.85 
	227.56,421.48 184.18,421.48 182.28,422.01 180.07,461.82 177.63,520.87 176.72,549.49 177.02,610.98 177.94,644.77 173.68,717.52 
	169.11,733.96 162.11,749.18 166.67,755.57 184.33,760.44 209.9,760.44 232.73,757.09 "/>
</svg>
