<?xml version="1.0" encoding="utf-8"?>
<!-- Generator: Adobe Illustrator 26.5.0, SVG Export Plug-In . SVG Version: 6.00 Build 0)  -->
<svg version="1.1" id="Layer_1" xmlns="http://www.w3.org/2000/svg" xmlns:xlink="http://www.w3.org/1999/xlink" x="0px" y="0px"
	 viewBox="0 0 428 926" style="enable-background:new 0 0 428 926;" xml:space="preserve">
<style type="text/css">
	.st0{fill:#1A1818;}
	.st1{fill:none;stroke:#1A1818;stroke-miterlimit:10;}
	.st2{fill:#FFFFFF;stroke:#1A1818;stroke-miterlimit:10;}
	.st3{fill:none;stroke:#1A1818;stroke-width:2;stroke-miterlimit:10;}
	.st4{fill:none;stroke:#1A1818;stroke-width:5;stroke-miterlimit:10;}
	.st5{fill:none;stroke:#1A1818;stroke-width:3;stroke-miterlimit:10;}
</style>
<polygon class="st0" points="321.35,657.54 277.2,618.25 246.02,588.69 220.5,559.12 198.22,527.93 182.02,497.15 176.35,483.38 
	201.87,457.06 207.94,460.7 216.86,489.05 231.03,516.19 250.47,542.11 273.56,567.63 290.57,586.26 321.35,608.94 346.06,635.27 
	345.25,656.33 339.58,660.38 "/>
<polygon class="st0" points="403.8,578.19 367.02,531.94 339.23,499.16 311.12,472.05 281.21,448.08 251.38,430.2 237.94,423.77 
	210.24,447.79 213.55,454.06 241.36,464.53 267.67,480.18 292.47,501.03 316.67,525.49 334.33,543.51 355.27,575.5 380.19,601.63 
	401.27,601.99 405.62,596.55 "/>
<polygon class="st1" points="178.11,481.45 164.2,455.03 144.76,422.63 128.56,412.1 111.95,393.06 80.36,353.37 33.38,287.76 
	22.85,270.75 27.4,266.47 81.58,303.55 129.37,341.63 145.84,355.94 171.22,381.32 175.54,389.42 197.71,461.13 "/>
<polyline class="st2" points="26.99,266.88 95.08,324.61 136.66,362.42 146.65,368.09 159.34,379.7 166.36,387.8 189.31,404.27 
	230.69,429.72 210.14,447.57 185.8,439.64 161.23,429.65 144.76,422.63 "/>
<polyline class="st1" points="231,429.82 235.28,425.94 219.29,416.42 191.74,400.76 175.54,389.42 "/>
<polyline class="st3" points="166.36,387.8 165.46,400.22 160.96,410.12 151.96,419.12 144.32,422.37 "/>
<polyline class="st1" points="146.65,368.09 135.22,364.22 122.8,365.48 117.04,369.8 "/>
<line class="st1" x1="24.15" y1="269.35" x2="66.1" y2="316.69"/>
<line class="st4" x1="116.78" y1="370.62" x2="68.26" y2="318.13"/>
<line class="st5" x1="85.04" y1="336.36" x2="38.06" y2="285.42"/>
</svg>
