<?xml version="1.0" encoding="utf-8"?>
<!-- Generator: Adobe Illustrator 26.5.0, SVG Export Plug-In . SVG Version: 6.00 Build 0)  -->
<svg version="1.1" id="Layer_1" xmlns="http://www.w3.org/2000/svg" xmlns:xlink="http://www.w3.org/1999/xlink" x="0px" y="0px"
	 viewBox="0 0 428 926" style="enable-background:new 0 0 428 926;" xml:space="preserve">
<style type="text/css">
	.st0{fill:#1A1818;}
	.st1{fill:#FFFFFF;stroke:#1A1818;stroke-miterlimit:10;}
	.st2{fill:none;stroke:#000100;stroke-miterlimit:10;}
	.st3{fill:#FFFFFF;stroke:#000100;stroke-miterlimit:10;}
	.st4{fill:#000100;}
</style>
<polygon class="st0" points="76.4,733.31 76.2,712.97 84.26,687.18 143.23,409.76 165.21,368.48 206.18,377.58 184.39,475.18 
	139.19,652.55 112.37,726.31 94.69,743.17 82.13,744.06 "/>
<polygon class="st0" points="163.73,797.67 157.1,777.01 157.76,756.18 164.37,705.84 172.97,643.01 182.34,590.53 192.57,537.56 
	207.24,476.39 223.98,412.91 234.16,383.83 281.79,397.66 273.77,421.54 272.44,442.18 253.55,502.91 236.5,564.86 217.37,650.16 
	199.06,750.89 191.95,779.36 180.1,793.48 169.57,799.5 "/>
<polygon class="st1" points="240.62,385.53 245.2,368.27 246.59,352.72 244.26,336.62 233.65,311.97 223.1,285.4 209.62,248.36 
	204.35,232.42 202.5,219.84 203.31,204.61 206.99,187.75 212.86,173.43 221.75,160.42 236.54,141.79 249.35,130.34 270.86,118.88 
	292.19,115.09 313.01,118.4 316.34,125.6 268.03,157.22 255.75,170.26 250.51,191.04 253.74,207.38 264.76,228.77 296,303.05 
	299.72,317.59 295.44,331.39 288.67,345.46 277.79,370.96 268.62,393.81 "/>
<polygon class="st1" points="168.48,369.18 189.24,293.47 206.68,238.86 223.1,285.4 233.65,311.97 219.83,327.97 211.5,345.96 
	202.27,376.58 "/>
<line class="st2" x1="215.32" y1="338.25" x2="239.19" y2="325"/>
<polygon class="st3" points="283.6,273.36 288.03,266.16 290.74,256.31 289.78,243.01 290.38,230.95 291.4,220.36 294.94,210.46 
	302.41,198.12 317.48,175.92 326.93,155.42 331.97,141.05 329.41,133.56 318.01,129.6 274.33,167.84 276.16,174.05 272.8,184.27 
	261.71,193.98 257.15,195.72 251.82,198.32 253.74,207.38 264.76,228.77 "/>
<polygon class="st3" points="258.4,330.85 234.26,272.05 238.83,255.44 252.88,253.51 279.18,316.77 277.68,327.47 271.03,334.09 
	263.13,333.85 "/>
<ellipse transform="matrix(0.2654 -0.9642 0.9642 0.2654 -66.2546 410.3778)" class="st4" cx="236.16" cy="248.67" rx="22.35" ry="19.5"/>
</svg>
