<?xml version="1.0" encoding="utf-8"?>
<!-- Generator: Adobe Illustrator 26.5.0, SVG Export Plug-In . SVG Version: 6.00 Build 0)  -->
<svg version="1.1" id="Layer_1" xmlns="http://www.w3.org/2000/svg" xmlns:xlink="http://www.w3.org/1999/xlink" x="0px" y="0px"
	 viewBox="0 0 428 926" style="enable-background:new 0 0 428 926;" xml:space="preserve">
<style type="text/css">
	.st0{fill:#000100;stroke:#FFFFFF;stroke-miterlimit:10;}
	.st1{fill:none;stroke:#FFFFFF;stroke-miterlimit:10;}
	.st2{fill:#FFFFFF;stroke:#000100;stroke-miterlimit:10;}
	.st3{fill:#1A1818;stroke:#FFFFFF;stroke-miterlimit:10;}
	.st4{fill:#1A1818;}
	.st5{fill:#FFFFFF;}
	.st6{fill:none;stroke:#FFFFFF;stroke-width:3;stroke-miterlimit:10;}
</style>
<polygon class="st0" points="106.51,395.87 114.76,382.27 111.85,370.13 100.2,364.31 93.89,362.85 67.67,371.59 54.56,364.79 
	52.62,344.89 66.88,327.89 86.42,328.56 96.31,345.37 119.8,349.8 142.92,336.15 177.88,304.59 190.02,294.88 200.7,294.88 
	211.87,304.1 214.78,317.7 218.18,326.92 320.75,375.6 335.2,376.93 359.47,375.47 374.04,380.33 407.54,405.58 413.85,415.77 
	413.37,427.43 346.36,509 336.65,511.91 260.42,462.38 281.79,429.37 289.07,414.32 284.22,406.06 209.44,375.96 193.42,395.87 
	146.32,396.35 "/>
<line class="st1" x1="113.35" y1="393.97" x2="161.3" y2="333.84"/>
<line class="st1" x1="169.83" y1="330.99" x2="121.88" y2="391.12"/>
<line class="st1" x1="130.47" y1="389" x2="178.42" y2="328.88"/>
<circle class="st2" cx="153.36" cy="500.01" r="95.89"/>
<polygon class="st3" points="25.91,485.69 36.59,453.16 67.67,405.09 128.84,388.1 207.5,385.67 225.47,391.5 257.03,421.11 
	277.42,454.13 289.07,492.97 240.03,495.4 230.32,487.15 220.12,465.78 179.34,427.43 115.25,432.28 99.23,445.88 78.83,480.35 
	69.12,489.57 "/>
<polygon class="st4" points="262.37,498.31 260.42,527.93 242.94,563.38 216.24,588.62 171.09,606.1 119.13,601.73 117.68,595.42 
	134.19,582.31 151.18,577.94 166.72,578.43 189.05,571.63 212.84,553.67 228.38,526.48 230.81,493.46 211.87,477.44 228.38,458.99 
	259.45,482.78 "/>
<polyline class="st1" points="219.73,466.18 230.32,487.15 240.03,495.4 289.07,492.97 "/>
<path class="st5" d="M375.3,402.41l-51.38,64.43c-2.65,3.32-7.54,3.88-10.87,1.22l-0.66-0.53c-3.32-2.65-3.88-7.54-1.22-10.87
	l51.38-64.43c2.65-3.32,7.54-3.88,10.87-1.22l0.66,0.53C377.4,394.2,377.95,399.09,375.3,402.41z"/>
<path class="st6" d="M382.93,411.47l-37.14,46.57c-1.24,1.56-3.53,1.82-5.09,0.57l-0.31-0.25c-1.56-1.24-1.82-3.53-0.57-5.09
	l37.14-46.57c1.24-1.56,3.53-1.82,5.09-0.57l0.31,0.25C383.91,407.62,384.17,409.91,382.93,411.47z"/>
<path class="st4" d="M372.17,402.75l-48.23,60.47c-2.03,2.54-5.76,2.96-8.31,0.94l-0.51-0.4c-2.54-2.03-2.96-5.76-0.94-8.31
	l48.23-60.47c2.03-2.54,5.76-2.96,8.31-0.94l0.51,0.4C373.78,396.47,374.2,400.21,372.17,402.75z"/>
<line class="st1" x1="342.12" y1="423.59" x2="363.05" y2="397.34"/>
<line class="st1" x1="366.77" y1="396.1" x2="345.84" y2="422.34"/>
<line class="st1" x1="349.59" y1="421.42" x2="370.52" y2="395.18"/>
<circle class="st0" cx="153.93" cy="498.4" r="9.47"/>
</svg>
