<?xml version="1.0" encoding="utf-8"?>
<!-- Generator: Adobe Illustrator 26.5.0, SVG Export Plug-In . SVG Version: 6.00 Build 0)  -->
<svg version="1.1" id="Layer_1" xmlns="http://www.w3.org/2000/svg" xmlns:xlink="http://www.w3.org/1999/xlink" x="0px" y="0px"
	 viewBox="0 0 428 926" style="enable-background:new 0 0 428 926;" xml:space="preserve">
<style type="text/css">
	.st0{fill:#FFFFFF;stroke:#000100;stroke-width:3;stroke-miterlimit:10;}
	.st1{fill:#000100;}
	.st2{fill:none;stroke:#FFFFFF;stroke-miterlimit:10;}
</style>
<polygon class="st0" points="75.63,306.98 85.68,324.89 68.23,314.03 53.94,306.88 34.93,283.49 44.67,273.7 68.68,291.67 "/>
<polygon class="st0" points="75.63,306.98 203.24,443.16 223.64,427.38 236.16,430.42 235.6,442.62 239.63,453.36 247.69,464.15 
	258.04,472.37 270.78,481.35 284.34,489.24 291.29,499.31 302.97,511.53 325.88,527.58 338.89,534.32 351.93,546.6 358.17,563.03 
	366.34,578.73 388.36,610.95 391.98,618.83 393.34,626.89 386.73,637.45 377.94,646.37 365.66,652.97 355.15,652.26 347.47,647.45 
	318.75,624.65 302.61,615.22 286.93,607 275.79,592.14 270.76,580.98 258.87,557.1 246.54,544.17 237.01,536.34 228.65,520.68 
	219.96,506.42 211.97,495.28 201.84,486.93 193.13,483.35 182.01,482.12 176.09,470.1 194.72,450.95 68.23,314.03 "/>
<polygon class="st1" points="203.24,443.16 223.64,427.38 236.16,430.42 235.6,442.62 239.63,453.36 247.69,464.15 270.78,481.35 
	284.34,489.24 291.29,499.31 302.97,511.53 325.88,527.58 338.89,534.32 351.93,546.6 358.17,563.03 366.34,578.73 388.36,610.95 
	391.98,618.83 393.34,626.89 386.73,637.45 377.94,646.37 365.66,652.97 355.15,652.26 347.47,647.45 318.75,624.65 302.61,615.22 
	286.93,607 275.79,592.14 270.76,580.98 258.87,557.1 246.54,544.17 237.01,536.34 228.65,520.68 219.96,506.42 211.97,495.28 
	201.84,486.93 193.13,483.35 178.04,483.32 176.09,470.1 194.72,450.95 "/>
<path class="st2" d="M193.71,476.15c0,0,32.71,8.4,45.51,56.11"/>
<path class="st2" d="M227.34,446.47c0,0,7.26,32.98,54.49,47.43"/>
<path class="st2" d="M204.83,467.87c0,0,34,24.18,46.54,54.3"/>
<path class="st2" d="M218.3,456.59c0,0,21.97,35.47,51.23,49.9"/>
</svg>
