<?xml version="1.0" encoding="utf-8"?>
<!-- Generator: Adobe Illustrator 26.5.0, SVG Export Plug-In . SVG Version: 6.00 Build 0)  -->
<svg version="1.1" id="Layer_1" xmlns="http://www.w3.org/2000/svg" xmlns:xlink="http://www.w3.org/1999/xlink" x="0px" y="0px"
	 viewBox="0 0 428 926" style="enable-background:new 0 0 428 926;" xml:space="preserve">
<style type="text/css">
	.st0{fill:#1A1818;}
	.st1{fill:none;stroke:#FFFFFF;stroke-miterlimit:10;}
	.st2{fill:#FFFFFF;}
</style>
<polygon class="st0" points="60.66,304.43 83.88,295.66 107.62,293.59 125.16,298.75 137.03,308.04 145.8,328.68 158.19,362.22 
	172.12,386.48 199.98,420.02 233.53,452.01 283.58,497.94 324.86,537.67 377.49,590.3 389.36,603.2 391.94,610.94 389.36,618.17 
	371.82,628.49 362.01,632.62 352.73,632.62 334.15,617.14 279.97,563.99 241.27,523.74 202.05,482.97 168.51,448.91 143.74,430.85 
	103.49,416.4 75.11,415.89 104.01,342.1 100.91,324.55 63.24,312.69 58.08,309.59 "/>
<polygon class="st1" points="262.42,532.51 290.29,520.64 181.41,415.37 150.45,377.7 139.09,410.21 150.96,417.44 "/>
<polygon class="st1" points="122.43,363.38 113.84,362.49 100.66,395.08 106.69,400.66 139.09,410.21 150.45,377.7 "/>
<polygon class="st1" points="130.29,407.6 142.19,376.56 123.66,368.52 111.2,401.99 "/>
<path class="st1" d="M116.39,378.48c0,0,11.48-1.1,26.19,7.1"/>
<path class="st1" d="M113.12,385.64c0,0,11.48-1.1,26.19,7.1"/>
<path class="st1" d="M110.29,393.64c0,0,11.48-1.1,26.19,7.1"/>
<path class="st0" d="M37.61,356.72l-1.72,4.3c0,0,5.76,26.14,37.5,54.87l18.58-47.47l-5.85,6.36l-5.33,1.89l-3.27-2.24L37.61,356.72
	z"/>
<polygon class="st2" points="326.84,599.76 355.82,582.39 380.16,606.73 381.11,613.01 363.56,622.81 352.9,622.12 339.82,612.83 
	"/>
</svg>
