<?xml version="1.0" encoding="utf-8"?>
<!-- Generator: Adobe Illustrator 26.5.0, SVG Export Plug-In . SVG Version: 6.00 Build 0)  -->
<svg version="1.1" id="Layer_1" xmlns="http://www.w3.org/2000/svg" xmlns:xlink="http://www.w3.org/1999/xlink" x="0px" y="0px"
	 viewBox="0 0 428 926" style="enable-background:new 0 0 428 926;" xml:space="preserve">
<style type="text/css">
	.st0{fill:#FFFFFF;stroke:#1A1818;stroke-width:2;stroke-miterlimit:10;}
	.st1{fill:#1A1818;}
	.st2{fill:#FFFFFF;}
	.st3{fill:#727273;stroke:#1A1818;stroke-miterlimit:10;}
	.st4{fill:#C4C2C2;stroke:#1A1818;stroke-miterlimit:10;}
</style>
<g>
	<path class="st0" d="M220.05,225.09l0.15,299.54h118.21v50.66H169.54V225.84L220.05,225.09z"/>
</g>
<g>
	<path class="st1" d="M220.8,237.03c10.06,0,19.56,1.89,28.51,5.66c8.94,3.77,16.77,8.95,23.48,15.51
		c6.71,6.57,11.95,14.33,15.72,23.27c3.77,8.95,5.66,18.45,5.66,28.51v7.55h-44.02v-7.46c0-8.01-2.87-14.85-8.59-20.52
		c-5.73-5.66-12.65-8.5-20.75-8.5h-46.53c-8.11,0-15.09,2.85-20.96,8.53c-5.87,5.69-8.81,12.56-8.81,20.6
		c0,8.33,2.93,15.34,8.81,21.03c5.87,5.69,12.85,8.53,20.96,8.53h46.53c10.06,0,19.56,1.89,28.51,5.66
		c8.94,3.77,16.77,9.01,23.48,15.72c6.71,6.71,11.95,14.53,15.72,23.48c3.77,8.95,5.66,18.59,5.66,28.93v34.38
		c0,10.06-1.89,19.57-5.66,28.51c-3.77,8.95-9.02,16.77-15.72,23.48c-6.71,6.71-14.54,11.95-23.48,15.72
		c-8.95,3.77-18.45,5.66-28.51,5.66h-46.53c-10.34,0-19.99-1.89-28.93-5.66c-8.95-3.77-16.77-9.01-23.48-15.72
		c-6.71-6.71-11.95-14.53-15.72-23.48c-3.77-8.94-5.66-18.45-5.66-28.51v-6.71h44.02v6.71c0,8.11,2.93,15.03,8.81,20.75
		c5.87,5.73,12.85,8.59,20.96,8.59h46.53c8.1,0,15.02-2.86,20.75-8.59c5.73-5.73,8.59-12.64,8.59-20.75v-34.38
		c0-8.1-2.87-15.09-8.59-20.96c-5.73-5.87-12.65-8.81-20.75-8.81h-46.53c-10.34,0-19.99-1.89-28.93-5.66
		c-8.95-3.77-16.77-9.01-23.48-15.72c-6.71-6.71-11.95-14.53-15.72-23.48c-3.77-8.94-5.66-18.58-5.66-28.93
		c0-10.06,1.89-19.56,5.66-28.51c3.77-8.94,9.01-16.7,15.72-23.27c6.71-6.56,14.53-11.74,23.48-15.51
		c8.94-3.77,18.58-5.66,28.93-5.66H220.8z"/>
</g>
<polygon class="st2" points="170.56,331.66 170.56,399.94 219.11,400.19 219.09,332.19 "/>
<polygon class="st3" points="132.87,384.88 143.16,377.21 153.13,380.25 142.72,389.83 "/>
<g>
	<path class="st4" d="M95.17,423.43c0,0,34,8.06,56.23,25.72l36.76-48.85l-55.9-23.82L95.17,423.43z"/>
	<polygon class="st3" points="153.57,459.09 151.39,449.15 188.15,400.3 190.07,409.98 	"/>
	<path class="st3" d="M95.17,423.43l2.73,9.03c0,0,23.67,18.23,55.68,26.63l-2.18-9.94C151.39,449.15,129.65,431.87,95.17,423.43z"
		/>
</g>
<path class="st4" d="M220.07,325.12c0,0,15.07-0.44,10.95,11.02c-3.76,10.47-48.73,61.9-48.73,61.9l-10.22-4.7l48.02-57.74"/>
</svg>
